<svg width="128" height="291" viewBox="0 0 128 291" fill="none" xmlns="http://www.w3.org/2000/svg">
<g opacity="0.8">
<rect x="98" y="237" width="60.7777" height="26.0476" rx="5" fill="url(#paint0_linear_16_1546)" fill-opacity="0.5"/>
<path fill-rule="evenodd" clip-rule="evenodd" d="M127.184 121.227L82.2503 196.49C81.4875 197.768 81.5274 199.37 82.3529 200.608L106.402 236.682H150.464L173.969 202.714C175.708 200.202 175.801 196.9 174.206 194.294L129.493 121.227H127.184ZM128.758 209.982C135.418 209.982 140.817 204.582 140.817 197.922C140.817 191.262 135.418 185.863 128.758 185.863C122.098 185.863 116.699 191.262 116.699 197.922C116.699 204.582 122.098 209.982 128.758 209.982Z" fill="url(#paint1_linear_16_1546)" fill-opacity="0.45"/>
<path d="M150.395 237.053L173.031 203.099C174.296 201.202 174.928 200.254 175.187 199.226C175.416 198.317 175.435 197.368 175.242 196.451C175.024 195.414 174.429 194.441 173.24 192.496L128.623 119.486M128.623 119.486L84.006 192.496C82.8173 194.441 82.223 195.414 82.0045 196.451C81.8113 197.368 81.83 198.317 82.0592 199.226C82.3185 200.254 82.9507 201.202 84.2152 203.099L106.851 237.053M128.623 119.486V185.55M107.996 263.179L149.251 263.179C152.7 263.179 154.424 263.179 155.741 262.508C156.9 261.918 157.842 260.976 158.433 259.817C159.104 258.5 159.104 256.775 159.104 253.327L159.104 246.906C159.104 243.457 159.104 241.733 158.433 240.416C157.842 239.257 156.9 238.315 155.741 237.725C154.424 237.053 152.7 237.053 149.251 237.053H107.996C104.547 237.053 102.822 237.053 101.505 237.725C100.346 238.315 99.4043 239.257 98.8139 240.416C98.1428 241.733 98.1428 243.457 98.1428 246.906L98.1428 253.327C98.1428 256.775 98.1428 258.5 98.814 259.817C99.4043 260.976 100.346 261.918 101.505 262.508C102.822 263.179 104.547 263.179 107.996 263.179ZM137.332 206.573C132.522 211.383 124.724 211.383 119.915 206.573C115.105 201.763 115.105 193.965 119.915 189.155C124.724 184.346 132.522 184.346 137.332 189.155C142.142 193.965 142.142 201.763 137.332 206.573Z" stroke="url(#paint2_linear_16_1546)" stroke-width="0.8" stroke-linecap="round" stroke-linejoin="round"/>
<path d="M4.59985 110.512C4.59985 110.512 69.2547 44.7004 130.446 100.121C191.637 155.542 252.828 88.5757 252.828 88.5757" stroke="url(#paint3_linear_16_1546)"/>
<path d="M4.6001 102.59C4.6001 102.59 69.2549 36.778 130.446 92.1988C191.637 147.62 252.828 80.6533 252.828 80.6533" stroke="url(#paint4_linear_16_1546)" stroke-opacity="0.9" stroke-width="0.5"/>
<path d="M4.6001 95.5898C4.6001 95.5898 69.2549 29.778 130.446 85.1988C191.637 140.62 252.828 73.6533 252.828 73.6533" stroke="url(#paint5_linear_16_1546)" stroke-opacity="0.8" stroke-width="0.5"/>
<path d="M4.6001 88.5898C4.6001 88.5898 69.2549 22.778 130.446 78.1988C191.637 133.62 252.828 66.6533 252.828 66.6533" stroke="url(#paint6_linear_16_1546)" stroke-opacity="0.7" stroke-width="0.5"/>
<path d="M4.6001 81.5898C4.6001 81.5898 69.2549 15.778 130.446 71.1988C191.637 126.62 252.828 59.6533 252.828 59.6533" stroke="url(#paint7_linear_16_1546)" stroke-opacity="0.6" stroke-width="0.5"/>
<path d="M4.6001 74.5898C4.6001 74.5898 69.2549 8.77804 130.446 64.1988C191.637 119.62 252.828 52.6533 252.828 52.6533" stroke="url(#paint8_linear_16_1546)" stroke-opacity="0.5" stroke-width="0.5"/>
<path d="M4.6001 67.5898C4.6001 67.5898 69.2549 1.77804 130.446 57.1988C191.637 112.62 252.828 45.6533 252.828 45.6533" stroke="url(#paint9_linear_16_1546)" stroke-opacity="0.4" stroke-width="0.5"/>
<path d="M4.6001 60.5898C4.6001 60.5898 69.2549 -5.22196 130.446 50.1988C191.637 105.62 252.828 38.6533 252.828 38.6533" stroke="url(#paint10_linear_16_1546)" stroke-opacity="0.3" stroke-width="0.5"/>
<path d="M4.6001 53.5898C4.6001 53.5898 69.2549 -12.222 130.446 43.1988C191.637 98.6196 252.828 31.6533 252.828 31.6533" stroke="url(#paint11_linear_16_1546)" stroke-opacity="0.2" stroke-width="0.5"/>
<path d="M4.6001 46.5898C4.6001 46.5898 69.2549 -19.222 130.446 36.1988C191.637 91.6196 252.828 24.6533 252.828 24.6533" stroke="url(#paint12_linear_16_1546)" stroke-opacity="0.2" stroke-width="0.5"/>
<path d="M4.6001 39.5898C4.6001 39.5898 69.2549 -26.222 130.446 29.1988C191.637 84.6196 252.828 17.6533 252.828 17.6533" stroke="url(#paint13_linear_16_1546)" stroke-opacity="0.2" stroke-width="0.5"/>
<path d="M4.6001 32.5898C4.6001 32.5898 69.2549 -33.222 130.446 22.1988C191.637 77.6196 252.828 10.6533 252.828 10.6533" stroke="url(#paint14_linear_16_1546)" stroke-opacity="0.2" stroke-width="0.5"/>
<path d="M4.6001 25.5898C4.6001 25.5898 69.2549 -40.222 130.446 15.1988C191.637 70.6196 252.828 3.65331 252.828 3.65331" stroke="url(#paint15_linear_16_1546)" stroke-opacity="0.2" stroke-width="0.5"/>
<path d="M4.6001 18.5898C4.6001 18.5898 69.2549 -47.222 130.446 8.19881C191.637 63.6196 252.828 -3.34669 252.828 -3.34669" stroke="url(#paint16_linear_16_1546)" stroke-opacity="0.95" stroke-width="0.5"/>
<path d="M4.6001 18.8056C4.6001 18.8056 69.2549 -47.0061 130.446 8.41463C191.637 63.8354 252.828 -3.13087 252.828 -3.13087" stroke="url(#paint17_linear_16_1546)" stroke-opacity="0.2" stroke-width="0.5"/>
<path d="M90.0522 50.2158L169.716 152.971" stroke="#5D35C7"/>
<rect x="0.75" y="106.384" width="7.7364" height="7.7364" fill="#181726" stroke="#593BE7" stroke-width="1.5"/>
<rect x="125.451" y="97.1475" width="7.7364" height="7.7364" fill="#181726" stroke="#6744D4" stroke-width="1.5"/>
<circle cx="90.0687" cy="50.2163" r="2.3091" fill="#5D35C7"/>
</g>
<defs>
<linearGradient id="paint0_linear_16_1546" x1="148.171" y1="261.991" x2="141.907" y2="236.8" gradientUnits="userSpaceOnUse">
<stop stop-color="#5E00A8"/>
<stop offset="1" stop-color="#4729D3"/>
</linearGradient>
<linearGradient id="paint1_linear_16_1546" x1="159" y1="232" x2="102.891" y2="153.578" gradientUnits="userSpaceOnUse">
<stop stop-color="#5E00A8"/>
<stop offset="1" stop-color="#4729D3"/>
</linearGradient>
<linearGradient id="paint2_linear_16_1546" x1="129" y1="145.5" x2="129" y2="264.5" gradientUnits="userSpaceOnUse">
<stop stop-color="#6744D4"/>
<stop offset="1" stop-color="#6525AC"/>
</linearGradient>
<linearGradient id="paint3_linear_16_1546" x1="218.912" y1="160.428" x2="202.301" y2="179.65" gradientUnits="userSpaceOnUse">
<stop stop-color="#8046B9"/>
<stop offset="1" stop-color="#593BE7"/>
</linearGradient>
<linearGradient id="paint4_linear_16_1546" x1="218.912" y1="152.505" x2="202.301" y2="171.727" gradientUnits="userSpaceOnUse">
<stop stop-color="#8046B9"/>
<stop offset="1" stop-color="#593BE7"/>
</linearGradient>
<linearGradient id="paint5_linear_16_1546" x1="218.912" y1="145.505" x2="202.301" y2="164.727" gradientUnits="userSpaceOnUse">
<stop stop-color="#8046B9"/>
<stop offset="1" stop-color="#593BE7"/>
</linearGradient>
<linearGradient id="paint6_linear_16_1546" x1="218.912" y1="138.505" x2="202.301" y2="157.727" gradientUnits="userSpaceOnUse">
<stop stop-color="#8046B9"/>
<stop offset="1" stop-color="#593BE7"/>
</linearGradient>
<linearGradient id="paint7_linear_16_1546" x1="218.912" y1="131.505" x2="202.301" y2="150.727" gradientUnits="userSpaceOnUse">
<stop stop-color="#8046B9"/>
<stop offset="1" stop-color="#593BE7"/>
</linearGradient>
<linearGradient id="paint8_linear_16_1546" x1="218.912" y1="124.505" x2="202.301" y2="143.727" gradientUnits="userSpaceOnUse">
<stop stop-color="#8046B9"/>
<stop offset="1" stop-color="#593BE7"/>
</linearGradient>
<linearGradient id="paint9_linear_16_1546" x1="218.912" y1="117.505" x2="202.301" y2="136.727" gradientUnits="userSpaceOnUse">
<stop stop-color="#8046B9"/>
<stop offset="1" stop-color="#593BE7"/>
</linearGradient>
<linearGradient id="paint10_linear_16_1546" x1="218.912" y1="110.505" x2="202.301" y2="129.727" gradientUnits="userSpaceOnUse">
<stop stop-color="#8046B9"/>
<stop offset="1" stop-color="#593BE7"/>
</linearGradient>
<linearGradient id="paint11_linear_16_1546" x1="218.912" y1="103.505" x2="202.301" y2="122.727" gradientUnits="userSpaceOnUse">
<stop stop-color="#8046B9"/>
<stop offset="1" stop-color="#593BE7"/>
</linearGradient>
<linearGradient id="paint12_linear_16_1546" x1="218.912" y1="96.5054" x2="202.301" y2="115.727" gradientUnits="userSpaceOnUse">
<stop stop-color="#8046B9"/>
<stop offset="1" stop-color="#593BE7"/>
</linearGradient>
<linearGradient id="paint13_linear_16_1546" x1="218.912" y1="89.5054" x2="202.301" y2="108.727" gradientUnits="userSpaceOnUse">
<stop stop-color="#8046B9"/>
<stop offset="1" stop-color="#593BE7"/>
</linearGradient>
<linearGradient id="paint14_linear_16_1546" x1="218.912" y1="82.5054" x2="202.301" y2="101.727" gradientUnits="userSpaceOnUse">
<stop stop-color="#8046B9"/>
<stop offset="1" stop-color="#593BE7"/>
</linearGradient>
<linearGradient id="paint15_linear_16_1546" x1="218.912" y1="75.5054" x2="202.301" y2="94.7273" gradientUnits="userSpaceOnUse">
<stop stop-color="#8046B9"/>
<stop offset="1" stop-color="#593BE7"/>
</linearGradient>
<linearGradient id="paint16_linear_16_1546" x1="-3.50049" y1="17.9071" x2="3.81769" y2="-8.86126" gradientUnits="userSpaceOnUse">
<stop stop-color="#121120"/>
<stop offset="1" stop-color="#2B2A37"/>
</linearGradient>
<linearGradient id="paint17_linear_16_1546" x1="218.912" y1="68.7212" x2="202.301" y2="87.9431" gradientUnits="userSpaceOnUse">
<stop stop-color="#8046B9"/>
<stop offset="1" stop-color="#593BE7"/>
</linearGradient>
</defs>
</svg>
