<svg width="1440" height="567" viewBox="0 0 1440 567" fill="none" xmlns="http://www.w3.org/2000/svg">
<g opacity="0.84" filter="url(#filter0_f_16_1713)">
<path d="M1321.74 361.338C1366.87 343.587 1385.32 324.149 1375.38 304.833C1365.44 285.517 1327.43 266.949 1264.89 250.855C1202.34 234.761 1117.29 221.664 1017.64 212.78C917.985 203.896 806.966 199.515 694.899 200.043C582.832 200.57 473.355 205.991 376.644 215.799C279.934 225.608 199.128 239.487 141.739 256.146C84.3494 272.804 52.2388 291.703 48.3917 311.084C44.5446 330.465 69.0858 349.699 119.734 367H712.5L1321.74 361.338Z" fill="url(#paint0_radial_16_1713)"/>
<path d="M1321.74 361.338C1366.87 343.587 1385.32 324.149 1375.38 304.833C1365.44 285.517 1327.43 266.949 1264.89 250.855C1202.34 234.761 1117.29 221.664 1017.64 212.78C917.985 203.896 806.966 199.515 694.899 200.043C582.832 200.57 473.355 205.991 376.644 215.799C279.934 225.608 199.128 239.487 141.739 256.146C84.3494 272.804 52.2388 291.703 48.3917 311.084C44.5446 330.465 69.0858 349.699 119.734 367H712.5L1321.74 361.338Z" fill="url(#paint1_linear_16_1713)" fill-opacity="0.4"/>
</g>
<defs>
<filter id="filter0_f_16_1713" x="-152" y="0" width="1730" height="567" filterUnits="userSpaceOnUse" color-interpolation-filters="sRGB">
<feFlood flood-opacity="0" result="BackgroundImageFix"/>
<feBlend mode="normal" in="SourceGraphic" in2="BackgroundImageFix" result="shape"/>
<feGaussianBlur stdDeviation="100" result="effect1_foregroundBlur_16_1713"/>
</filter>
<radialGradient id="paint0_radial_16_1713" cx="0" cy="0" r="1" gradientUnits="userSpaceOnUse" gradientTransform="translate(617 271.106) rotate(58.8706) scale(185.696 854.199)">
<stop stop-color="#621ABE"/>
<stop offset="1" stop-color="#24214B" stop-opacity="0"/>
</radialGradient>
<linearGradient id="paint1_linear_16_1713" x1="900.5" y1="315.274" x2="412.906" y2="280.385" gradientUnits="userSpaceOnUse">
<stop stop-color="#FF9C54"/>
<stop offset="0.459917" stop-color="white" stop-opacity="0.540083"/>
<stop offset="1" stop-opacity="0"/>
</linearGradient>
</defs>
</svg>
