<svg width="1241" height="512" viewBox="0 0 1241 512" fill="none" xmlns="http://www.w3.org/2000/svg">
<ellipse cx="626.446" cy="282.732" rx="375.59" ry="228.68" fill="url(#paint0_radial_0_1)"/>
<circle cx="609.814" cy="212.049" r="124.735" fill="url(#paint1_linear_0_1)"/>
<g filter="url(#filter0_d_0_1)">
<path d="M546 156L547 212.966L546 274" stroke="white" stroke-width="8"/>
<path d="M661.602 158L636.5 155.5L622.5 156.5L616 160.5L612.986 167L609.514 177L608.5 184.5L611.002 193.5L616 201.5L621.42 205.5L634.814 212.5L650.192 216.5L661.602 219L671.027 226.5L674.5 241L671.027 255.651L665.571 265.5L657 270.5H644L612.986 267" stroke="white" stroke-width="8"/>
<path d="M600 154L551 210L600 270" stroke="white" stroke-width="8"/>
</g>
<path d="M1220.51 286.197C1220.51 311.696 1203.59 336.085 1172.75 358.35C1141.91 380.607 1097.27 400.671 1042.06 417.53C931.634 451.245 779.059 472.106 610.507 472.106C441.956 472.106 289.38 451.245 178.959 417.53C123.746 400.671 79.1004 380.607 48.2693 358.35C17.4267 336.085 0.5 311.696 0.5 286.197C0.5 260.698 17.4267 236.309 48.2693 214.044C79.1004 191.787 123.746 171.723 178.959 154.864C289.38 121.149 441.956 100.288 610.507 100.288C779.059 100.288 931.634 121.149 1042.06 154.864C1097.27 171.723 1141.91 191.787 1172.75 214.044C1203.59 236.309 1220.51 260.698 1220.51 286.197Z" stroke="url(#paint2_linear_0_1)"/>
<path d="M1145.67 286.197C1145.67 311.728 1130.98 336.119 1104.25 358.372C1077.52 380.621 1038.81 400.681 990.941 417.537C895.2 451.247 762.901 472.106 616.744 472.106C470.587 472.106 338.289 451.247 242.547 417.537C194.674 400.681 155.968 380.621 129.239 358.372C102.508 336.119 87.8143 311.728 87.8143 286.197C87.8143 260.666 102.508 236.274 129.239 214.022C155.968 191.773 194.674 171.713 242.547 154.857C338.289 121.147 470.587 100.288 616.744 100.288C762.901 100.288 895.2 121.147 990.941 154.857C1038.81 171.713 1077.52 191.773 1104.25 214.022C1130.98 236.274 1145.67 260.666 1145.67 286.197Z" stroke="url(#paint3_linear_0_1)"/>
<path d="M1112.41 286.197C1112.41 311.747 1099.03 336.142 1074.73 358.387C1050.42 380.632 1015.21 400.688 971.669 417.542C884.585 451.248 764.245 472.106 631.296 472.106C498.348 472.106 378.008 451.248 290.924 417.542C247.38 400.688 212.176 380.632 187.867 358.387C163.558 336.142 150.182 311.747 150.182 286.197C150.182 260.647 163.558 236.252 187.867 214.007C212.176 191.762 247.38 171.706 290.924 154.852C378.008 121.146 498.348 100.288 631.296 100.288C764.245 100.288 884.585 121.146 971.669 154.852C1015.21 171.706 1050.42 191.762 1074.73 214.007C1099.03 236.252 1112.41 260.647 1112.41 286.197Z" stroke="url(#paint4_linear_0_1)"/>
<path d="M828.293 190.567C828.293 295.489 733.631 380.634 616.744 380.634C499.857 380.634 405.195 295.489 405.195 190.567C405.195 85.6448 499.857 0.5 616.744 0.5C733.631 0.5 828.293 85.6448 828.293 190.567Z" stroke="url(#paint5_linear_0_1)"/>
<path d="M819.977 239.768C819.977 270.887 797.283 299.165 760.359 319.692C723.453 340.209 672.433 352.915 616.051 352.915C559.669 352.915 508.649 340.209 471.743 319.692C434.819 299.165 412.125 270.887 412.125 239.768C412.125 208.649 434.819 180.371 471.743 159.844C508.649 139.327 559.669 126.621 616.051 126.621C672.433 126.621 723.453 139.327 760.359 159.844C797.283 180.371 819.977 208.649 819.977 239.768Z" stroke="url(#paint6_linear_0_1)"/>
<path d="M1182.34 222.788C1182.34 220.637 1180.03 218.598 1176.48 217.334C1177.3 213.124 1176.94 209.774 1175.34 208.701C1174.95 208.447 1174.51 208.32 1174.07 208.331V209.806C1174.33 209.806 1174.54 209.867 1174.71 209.979C1175.49 210.496 1175.82 212.461 1175.56 214.99C1175.5 215.613 1175.4 216.267 1175.27 216.936C1174.08 216.603 1172.88 216.362 1171.67 216.215C1170.94 215.051 1170.15 213.946 1169.3 212.905C1171.16 210.9 1172.89 209.801 1174.07 209.801V208.324C1172.51 208.324 1170.47 209.622 1168.4 211.872C1166.34 209.637 1164.29 208.352 1162.73 208.352V209.826C1163.91 209.826 1165.65 210.92 1167.5 212.912C1166.71 213.886 1165.91 214.99 1165.16 216.215C1163.94 216.36 1162.73 216.603 1161.55 216.943C1161.42 216.309 1161.32 215.669 1161.25 215.024C1160.98 212.494 1161.31 210.529 1162.08 210.006C1162.25 209.887 1162.47 209.833 1162.73 209.833V208.358C1162.26 208.358 1161.82 208.477 1161.45 208.728C1159.85 209.801 1159.5 213.143 1160.32 217.341C1156.79 218.613 1154.49 220.644 1154.49 222.788C1154.49 224.94 1156.8 226.979 1160.34 228.242C1159.52 232.453 1159.89 235.803 1161.49 236.875C1161.86 237.126 1162.29 237.245 1162.76 237.245C1164.33 237.245 1166.37 235.948 1168.44 233.697C1170.5 235.934 1172.55 237.218 1174.11 237.218C1174.56 237.229 1175 237.101 1175.39 236.848C1176.98 235.776 1177.34 232.434 1176.52 228.236C1180.04 226.972 1182.34 224.933 1182.34 222.788ZM1174.95 218.373C1174.73 219.258 1174.47 220.13 1174.18 220.987C1173.71 219.911 1173.18 218.864 1172.62 217.849C1173.43 217.989 1174.2 218.161 1174.95 218.373H1174.95ZM1172.35 225.423C1171.92 226.288 1171.47 227.132 1170.98 227.952C1169.28 228.127 1167.56 228.129 1165.86 227.959C1164.88 226.331 1164.03 224.608 1163.31 222.809C1164.03 221.005 1164.88 219.276 1165.85 217.64C1167.55 217.464 1169.26 217.461 1170.97 217.631C1171.44 218.419 1171.9 219.261 1172.34 220.148C1172.77 221.014 1173.16 221.894 1173.52 222.782C1173.16 223.68 1172.77 224.561 1172.35 225.423ZM1174.18 224.562C1174.49 225.449 1174.75 226.336 1174.96 227.197C1174.22 227.409 1173.44 227.588 1172.63 227.726C1173.19 226.702 1173.71 225.646 1174.18 224.562ZM1168.42 231.626C1167.9 230.99 1167.37 230.282 1166.85 229.507C1167.36 229.534 1167.88 229.554 1168.41 229.554C1168.94 229.554 1169.47 229.541 1169.99 229.507C1169.48 230.282 1168.95 230.99 1168.42 231.626ZM1164.2 227.726C1163.42 227.594 1162.64 227.42 1161.87 227.204C1162.08 226.35 1162.34 225.469 1162.64 224.589C1162.87 225.117 1163.12 225.648 1163.38 226.178C1163.65 226.707 1163.92 227.224 1164.2 227.726ZM1168.4 213.951C1168.92 214.587 1169.45 215.295 1169.97 216.07C1169.46 216.043 1168.94 216.023 1168.41 216.023C1167.88 216.023 1167.35 216.036 1166.84 216.07C1167.35 215.295 1167.87 214.587 1168.4 213.951ZM1164.2 217.851C1163.63 218.872 1163.11 219.926 1162.64 221.008C1162.34 220.145 1162.08 219.266 1161.86 218.373C1162.6 218.167 1163.38 217.989 1164.2 217.851ZM1159.06 226.137C1157.05 225.139 1155.75 223.828 1155.75 222.788C1155.75 221.749 1157.05 220.431 1159.06 219.439C1159.55 219.194 1160.08 218.975 1160.63 218.771C1160.95 220.067 1161.38 221.418 1161.91 222.802C1161.41 224.104 1160.99 225.444 1160.65 226.813C1160.11 226.618 1159.58 226.393 1159.06 226.137ZM1162.11 235.596C1161.34 235.082 1161.01 233.114 1161.27 230.587C1161.33 229.964 1161.43 229.308 1161.56 228.639C1162.67 228.957 1163.88 229.202 1165.16 229.362C1165.88 230.525 1166.67 231.631 1167.52 232.672C1165.67 234.677 1163.93 235.776 1162.75 235.776C1162.53 235.779 1162.31 235.717 1162.11 235.597V235.596ZM1175.58 230.553C1175.84 233.082 1175.51 235.048 1174.75 235.57C1174.58 235.689 1174.36 235.742 1174.1 235.742C1172.92 235.742 1171.18 234.65 1169.33 232.657C1170.17 231.62 1170.96 230.517 1171.67 229.355C1172.89 229.21 1174.09 228.967 1175.28 228.627C1175.41 229.296 1175.51 229.937 1175.58 230.553ZM1177.76 226.137C1177.27 226.382 1176.74 226.602 1176.19 226.806C1175.84 225.43 1175.42 224.083 1174.91 222.775C1175.44 221.399 1175.85 220.055 1176.17 218.764C1176.71 218.959 1177.25 219.185 1177.77 219.439C1179.78 220.438 1181.08 221.749 1181.08 222.788C1181.07 223.828 1179.77 225.146 1177.76 226.137Z" fill="url(#paint7_linear_0_1)"/>
<path d="M1168.41 225.813C1169.1 225.813 1169.76 225.494 1170.24 224.927C1170.73 224.36 1171 223.59 1171 222.787C1171 221.985 1170.73 221.215 1170.24 220.648C1169.76 220.081 1169.1 219.762 1168.41 219.762C1167.72 219.762 1167.06 220.081 1166.57 220.648C1166.09 221.215 1165.81 221.985 1165.81 222.787C1165.81 223.59 1166.09 224.36 1166.57 224.927C1167.06 225.494 1167.72 225.813 1168.41 225.813Z" fill="url(#paint8_linear_0_1)"/>
<path d="M1084.65 166.301H1070.49C1069.43 166.301 1068.56 167.309 1068.56 168.552V185.061C1068.56 186.304 1069.43 187.312 1070.49 187.312H1084.65C1085.71 187.312 1086.58 186.304 1086.58 185.061V168.552C1086.58 167.309 1085.71 166.301 1084.65 166.301ZM1078.37 182.688C1078.37 184.733 1077.34 185.666 1075.84 185.666C1074.48 185.666 1073.7 184.85 1073.29 183.861L1074.67 182.89C1074.94 183.438 1075.18 183.903 1075.76 183.903C1076.32 183.903 1076.67 183.649 1076.67 182.66V175.948H1078.37V182.688ZM1082.37 185.666C1080.8 185.666 1079.78 184.794 1079.29 183.649L1080.67 182.721C1081.03 183.41 1081.5 183.921 1082.34 183.921C1083.04 183.921 1083.49 183.513 1083.49 182.946C1083.49 182.271 1083.03 182.031 1082.25 181.633L1081.83 181.422C1080.61 180.817 1079.8 180.052 1079.8 178.444C1079.8 176.961 1080.77 175.836 1082.28 175.836C1083.35 175.836 1084.13 176.272 1084.68 177.416L1083.36 178.401C1083.07 177.796 1082.76 177.557 1082.27 177.557C1081.78 177.557 1081.46 177.923 1081.46 178.401C1081.46 178.992 1081.78 179.231 1082.5 179.602L1082.93 179.813C1084.37 180.531 1085.17 181.267 1085.17 182.918C1085.17 184.691 1083.98 185.666 1082.37 185.666Z" fill="url(#paint9_linear_0_1)"/>
<path d="M1229.33 311.766C1228.99 311.766 1228.66 311.656 1228.36 311.449L1225.3 309.224C1224.84 308.908 1225.07 308.798 1225.22 308.737C1225.83 308.475 1225.95 308.42 1226.6 307.963C1226.67 307.914 1226.76 307.933 1226.83 307.987L1229.18 309.7C1229.27 309.761 1229.38 309.761 1229.46 309.7L1238.63 303.204C1238.72 303.143 1238.77 303.021 1238.77 302.899V289.908C1238.77 289.78 1238.72 289.664 1238.63 289.597L1229.46 283.107C1229.38 283.046 1229.27 283.046 1229.18 283.107L1220.02 289.603C1219.94 289.664 1219.88 289.786 1219.88 289.914V302.899C1219.88 303.021 1219.94 303.143 1220.02 303.198L1222.54 304.977C1223.9 305.812 1224.73 304.831 1224.73 303.838V291.017C1224.73 290.834 1224.85 290.694 1225 290.694H1226.16C1226.31 290.694 1226.43 290.834 1226.43 291.017V303.844C1226.43 306.074 1225.44 307.354 1223.72 307.354C1223.19 307.354 1222.77 307.354 1221.61 306.647L1219.21 304.947C1218.61 304.526 1218.24 303.74 1218.24 302.893V289.908C1218.24 289.067 1218.61 288.275 1219.21 287.854L1228.36 281.358C1228.94 280.956 1229.71 280.956 1230.29 281.358L1239.45 287.86C1240.05 288.281 1240.42 289.067 1240.42 289.914V302.899C1240.42 303.74 1240.05 304.526 1239.45 304.953L1230.29 311.449C1230 311.656 1229.66 311.766 1229.33 311.766ZM1236.73 298.963C1236.73 296.531 1235.39 295.886 1232.57 295.428C1229.72 294.965 1229.43 294.728 1229.43 293.911C1229.43 293.235 1229.68 292.333 1231.79 292.333C1233.67 292.333 1234.36 292.833 1234.65 294.393C1234.68 294.539 1234.78 294.649 1234.91 294.649H1236.1C1236.17 294.649 1236.24 294.612 1236.29 294.545C1236.34 294.478 1236.37 294.386 1236.36 294.295C1236.18 291.608 1234.73 290.359 1231.79 290.359C1229.17 290.359 1227.61 291.711 1227.61 293.984C1227.61 296.446 1229.17 297.129 1231.67 297.433C1234.68 297.793 1234.91 298.335 1234.91 299.06C1234.91 300.316 1234.08 300.852 1232.15 300.852C1229.73 300.852 1229.2 300.102 1229.02 298.622C1229 298.463 1228.89 298.347 1228.75 298.347H1227.57C1227.42 298.347 1227.31 298.494 1227.31 298.67C1227.31 300.565 1228.14 302.826 1232.16 302.826C1235.06 302.82 1236.73 301.412 1236.73 298.963Z" fill="url(#paint10_linear_0_1)"/>
<path fill-rule="evenodd" clip-rule="evenodd" d="M1065.84 402.275C1063.51 402.275 1061.63 404.556 1061.63 407.351C1061.63 409.05 1062.33 410.559 1063.39 411.48C1062.84 411.96 1062.4 412.584 1062.09 413.301C1061.79 414.018 1061.63 414.808 1061.63 415.609C1061.63 417.309 1062.33 418.817 1063.39 419.738C1062.84 420.218 1062.4 420.842 1062.09 421.559C1061.79 422.276 1061.63 423.067 1061.63 423.867C1061.63 426.662 1063.51 428.943 1065.84 428.943C1068.17 428.943 1070.04 426.662 1070.04 423.867V419.576C1070.78 420.293 1071.71 420.685 1072.67 420.686C1075 420.685 1076.88 418.404 1076.88 415.609C1076.88 414.808 1076.72 414.018 1076.42 413.301C1076.11 412.584 1075.67 411.96 1075.12 411.48C1075.67 411 1076.11 410.376 1076.42 409.659C1076.72 408.942 1076.88 408.152 1076.88 407.351C1076.88 404.556 1075 402.275 1072.67 402.275H1065.84ZM1063.21 407.351C1063.21 405.583 1064.4 404.167 1065.84 404.167H1068.46V410.534H1065.84C1064.4 410.534 1063.21 409.118 1063.21 407.351ZM1072.67 410.533H1070.04V404.166H1072.67C1074.11 404.166 1075.3 405.583 1075.3 407.351C1075.3 409.118 1074.11 410.533 1072.67 410.533ZM1063.21 415.609C1063.21 413.842 1064.4 412.426 1065.84 412.426H1068.46V418.793H1065.84C1064.39 418.793 1063.21 417.376 1063.21 415.609H1063.21ZM1070.04 415.609C1070.04 413.842 1071.23 412.426 1072.67 412.426C1074.11 412.426 1075.3 413.841 1075.3 415.609C1075.3 417.376 1074.11 418.793 1072.67 418.793C1071.23 418.793 1070.05 417.377 1070.05 415.609H1070.04ZM1063.21 423.867C1063.21 422.101 1064.4 420.685 1065.84 420.685H1068.46V423.867C1068.46 425.635 1067.28 427.051 1065.84 427.051C1064.4 427.051 1063.21 425.635 1063.21 423.867Z" fill="url(#paint11_linear_0_1)"/>
<path d="M1160.5 308.532H1147.91C1146.19 308.532 1144.79 310.164 1144.79 312.178V326.302C1144.79 328.316 1146.19 329.948 1147.91 329.948H1160.5C1162.22 329.948 1163.62 328.316 1163.62 326.302V312.178C1163.62 310.164 1162.22 308.532 1160.5 308.532Z" fill="url(#paint12_linear_0_1)"/>
<path d="M1154.69 314.165L1152.34 318.689L1154.85 323.493C1154.87 323.527 1154.87 323.566 1154.87 323.604C1154.86 323.62 1154.85 323.623 1154.84 323.624L1154.83 323.624L1154.81 323.623C1154.8 323.623 1154.79 323.624 1154.78 323.626H1152.97L1152.93 323.625C1152.83 323.622 1152.76 323.606 1152.72 323.522C1152.55 323.141 1152.38 322.761 1152.21 322.381C1152.06 322.041 1151.91 321.705 1151.75 321.371L1151.68 321.224C1151.49 320.828 1151.3 320.43 1151.11 320.03H1151.1C1150.93 320.426 1150.76 320.819 1150.58 321.209C1150.4 321.602 1150.22 321.993 1150.04 322.381C1149.86 322.769 1149.68 323.154 1149.5 323.537C1149.47 323.615 1149.42 323.632 1149.35 323.634L1149.32 323.635H1147.59L1147.58 323.635L1147.56 323.638C1147.54 323.639 1147.53 323.635 1147.53 323.611C1147.53 323.575 1147.53 323.538 1147.55 323.508L1149.99 318.837L1147.61 314.151C1147.59 314.112 1147.58 314.08 1147.6 314.055C1147.61 314.043 1147.62 314.033 1147.64 314.026C1147.65 314.02 1147.66 314.017 1147.68 314.018H1149.46C1149.5 314.016 1149.54 314.023 1149.57 314.04C1149.6 314.06 1149.63 314.088 1149.65 314.121C1149.8 314.514 1149.97 314.907 1150.15 315.3C1150.34 315.691 1150.52 316.079 1150.72 316.464C1150.9 316.844 1151.08 317.232 1151.24 317.628H1151.25C1151.42 317.233 1151.59 316.84 1151.76 316.45C1151.94 316.067 1152.11 315.681 1152.3 315.293C1152.47 314.91 1152.65 314.524 1152.82 314.136C1152.83 314.1 1152.85 314.067 1152.87 314.04C1152.9 314.022 1152.94 314.014 1152.97 314.018H1154.63C1154.64 314.014 1154.66 314.015 1154.67 314.022C1154.69 314.029 1154.7 314.042 1154.71 314.058C1154.71 314.074 1154.72 314.092 1154.72 314.11C1154.71 314.128 1154.71 314.145 1154.7 314.158L1154.69 314.166L1154.69 314.165ZM1158.4 323.816L1158.32 323.817C1157.73 323.828 1157.16 323.687 1156.63 323.405C1156.14 323.139 1155.72 322.704 1155.45 322.159C1155.17 321.619 1155.03 320.946 1155.02 320.14L1155.02 320.074C1155.01 319.398 1155.16 318.732 1155.45 318.144C1155.73 317.562 1156.15 317.082 1156.66 316.757L1156.7 316.73C1157.25 316.376 1157.91 316.199 1158.68 316.199L1158.72 316.199L1158.75 316.201L1158.8 316.203L1158.85 316.206L1158.93 316.213L1159.02 316.222L1159.09 316.229V313.326C1159.09 313.257 1159.11 313.222 1159.16 313.222H1160.75C1160.76 313.221 1160.78 313.222 1160.79 313.226C1160.8 313.23 1160.8 313.236 1160.81 313.245C1160.82 313.253 1160.82 313.264 1160.83 313.275C1160.83 313.287 1160.83 313.299 1160.83 313.311V322.02C1160.83 322.166 1160.84 322.323 1160.84 322.492L1160.87 322.874L1160.88 323.095C1160.88 323.126 1160.88 323.156 1160.86 323.183C1160.85 323.209 1160.83 323.23 1160.81 323.243C1160.39 323.442 1159.97 323.591 1159.53 323.685C1159.16 323.765 1158.78 323.809 1158.4 323.816ZM1159.09 321.99V317.967C1159.02 317.946 1158.95 317.931 1158.88 317.923C1158.79 317.913 1158.71 317.908 1158.62 317.908C1158.31 317.905 1158.01 317.986 1157.73 318.144C1157.47 318.299 1157.24 318.533 1157.07 318.822C1156.9 319.106 1156.82 319.478 1156.81 319.937L1156.81 319.986C1156.81 320.307 1156.85 320.627 1156.94 320.929C1157.02 321.172 1157.14 321.394 1157.3 321.577C1157.45 321.747 1157.63 321.873 1157.83 321.946C1158.04 322.025 1158.26 322.065 1158.48 322.064C1158.6 322.064 1158.71 322.059 1158.81 322.049C1158.89 322.042 1158.97 322.026 1159.05 322.003L1159.09 321.99Z" fill="black"/>
<path d="M1002.9 184.947C1004.38 183.954 1005.86 182.954 1007.35 181.973C1008.76 181.04 1010.42 181.9 1010.74 183.714C1010.92 184.763 1010.52 185.897 1009.71 186.449C1007.04 188.259 1004.38 190.061 1001.7 191.836C1000.87 192.386 1000.01 192.285 999.256 191.611C998.488 190.928 998.246 189.985 998.426 188.888C998.632 188.052 999.102 187.494 999.744 187.076C1000.81 186.385 1001.85 185.658 1002.9 184.947Z" fill="url(#paint13_linear_0_1)"/>
<path d="M1003.99 184.226C1002.51 183.226 1001.03 182.234 999.557 181.224C998.16 180.266 997.968 178.16 999.155 176.93C999.842 176.218 1000.88 176.057 1001.7 176.602C1004.38 178.386 1007.05 180.178 1009.71 181.998C1010.53 182.561 1010.88 183.475 1010.76 184.575C1010.64 185.692 1010.06 186.408 1009.15 186.775C1008.43 186.985 1007.78 186.789 1007.15 186.349C1006.1 185.623 1005.04 184.932 1003.99 184.226Z" fill="url(#paint14_linear_0_1)"/>
<path d="M990.523 183.519C989.575 184.147 988.626 184.774 987.679 185.404C987.125 185.772 986.577 186.154 986.02 186.516C984.898 187.246 983.565 186.818 982.929 185.532C982.322 184.304 982.671 182.713 983.752 181.977C986.394 180.179 989.042 178.394 991.701 176.628C992.516 176.087 993.362 176.155 994.116 176.802C994.911 177.486 995.172 178.447 994.993 179.574C994.882 179.846 994.816 180.166 994.65 180.381C994.38 180.73 994.073 181.065 993.732 181.311C992.675 182.071 991.594 182.786 990.523 183.519Z" fill="url(#paint15_linear_0_1)"/>
<path d="M989.436 184.222C990.376 184.866 991.316 185.51 992.258 186.152C992.808 186.527 993.365 186.89 993.913 187.271C995.016 188.039 995.365 189.599 994.727 190.885C994.119 192.112 992.763 192.555 991.677 191.831C989.02 190.062 986.37 188.28 983.73 186.478C982.92 185.925 982.548 185.037 982.652 183.952C982.761 182.807 983.345 182.063 984.271 181.68C984.529 181.656 984.799 181.562 985.042 181.623C985.436 181.721 985.838 181.863 986.192 182.085C987.284 182.773 988.356 183.506 989.436 184.222Z" fill="url(#paint16_linear_0_1)"/>
<path fill-rule="evenodd" clip-rule="evenodd" d="M176.015 266.51C170.656 266.51 166.313 271.937 166.313 278.632C166.313 285.326 170.656 290.754 176.015 290.754C181.372 290.754 185.716 285.326 185.716 278.632C185.716 271.937 181.372 266.51 176.015 266.51ZM176.128 285.721C173.001 285.721 170.469 282.549 170.469 278.632C170.469 274.714 173.001 271.542 176.128 271.542C177.656 271.542 178.933 272.246 179.913 273.39L178.317 275.388V275.384C177.723 274.675 176.969 274.311 176.128 274.311C174.26 274.311 172.743 276.287 172.743 278.628C172.743 280.966 174.26 282.948 176.128 282.948C177.822 282.948 178.975 281.734 179.213 280.067H176.128V277.302H181.452C181.523 277.777 181.561 278.272 181.561 278.791C181.561 282.842 179.396 285.721 176.128 285.721Z" fill="url(#paint17_linear_0_1)"/>
<path d="M43.2576 361.697H45.8761V362.996H44.3525V364.296H45.8761V365.595H43.2576V361.697ZM46.3992 361.697H49.0187V362.828H47.4951V363.053H49.0187V365.652H46.3992V364.466H47.9227V364.239H46.3992V361.697ZM49.5428 361.697H52.1602V362.828H50.6367V363.053H52.1602V365.652H49.5428V364.466H51.0663V364.239H49.5428V361.697Z" fill="url(#paint18_linear_0_1)"/>
<path fill-rule="evenodd" clip-rule="evenodd" d="M47.806 389.876L40.8553 387.627L38.8064 367.382H56.8236L54.7756 387.625L47.806 389.876ZM42.8572 376.546L43.0484 379.028H50.4325L50.1853 382.248L47.809 382.997H47.807L45.4347 382.25L45.2826 380.271H43.1435L43.4418 384.169L47.806 385.581L52.1772 384.169L52.7097 377.212L52.7617 376.546L53.1461 371.519H42.4739L42.6681 374.003H50.8119L50.6177 376.546H42.8572Z" fill="url(#paint19_linear_0_1)"/>
<path d="M259.865 271.669H275.11V290.346H259.865V271.669ZM259.171 291.219H275.802V270.796H259.171V291.219ZM270.065 278.075C270.065 278.005 270.085 277.97 270.148 277.97H271.236C271.291 277.97 271.319 277.996 271.319 278.075V284.961C271.319 285.031 271.305 285.066 271.236 285.066H270.163C270.093 285.066 270.072 285.023 270.072 284.952V278.075H270.065H270.065ZM269.989 276.094C269.989 275.858 270.063 275.631 270.196 275.465C270.328 275.298 270.508 275.204 270.695 275.204C270.883 275.204 271.063 275.298 271.195 275.465C271.328 275.631 271.402 275.858 271.402 276.094C271.409 276.215 271.395 276.336 271.361 276.449C271.327 276.562 271.274 276.664 271.205 276.749C271.137 276.834 271.055 276.899 270.964 276.939C270.874 276.98 270.777 276.995 270.682 276.984C270.588 276.992 270.494 276.974 270.407 276.931C270.319 276.889 270.24 276.823 270.174 276.739C270.108 276.654 270.058 276.553 270.026 276.442C269.994 276.33 269.982 276.212 269.99 276.094H269.989ZM266.87 280.947C266.676 279.974 266.217 277.866 266.046 276.845H266.032C265.887 277.866 265.519 279.594 265.228 280.947H266.87ZM264.944 282.361L264.396 284.979C264.383 285.049 264.362 285.067 264.292 285.067H263.275C263.205 285.067 263.192 285.041 263.205 284.936L265.173 276.258C265.221 276.021 265.244 275.778 265.243 275.534C265.243 275.472 265.263 275.446 265.298 275.446H266.753C266.802 275.446 266.823 275.463 266.836 275.534L269.04 284.951C269.054 285.02 269.04 285.065 268.985 285.065H267.834C267.779 285.065 267.744 285.047 267.73 284.99L267.162 282.362H264.945L264.944 282.361Z" fill="url(#paint20_linear_0_1)"/>
<path fill-rule="evenodd" clip-rule="evenodd" d="M113.647 190.66C113.647 190.201 113.801 189.761 114.074 189.436C114.347 189.112 114.717 188.929 115.103 188.929H129.617C129.808 188.929 129.997 188.974 130.174 189.06C130.351 189.147 130.512 189.275 130.647 189.435C130.783 189.596 130.89 189.787 130.963 189.997C131.037 190.207 131.074 190.433 131.074 190.66V207.911C131.074 208.138 131.037 208.364 130.964 208.574C130.89 208.784 130.783 208.975 130.648 209.136C130.513 209.297 130.352 209.424 130.175 209.511C129.998 209.599 129.809 209.643 129.617 209.643H115.103C114.912 209.643 114.722 209.598 114.546 209.511C114.369 209.424 114.209 209.297 114.073 209.136C113.938 208.975 113.831 208.784 113.758 208.574C113.685 208.364 113.647 208.139 113.647 207.912V190.66ZM120.545 196.827H122.905V198.236C123.245 197.426 124.117 196.697 125.426 196.697C127.936 196.697 128.531 198.31 128.531 201.269V206.751H125.991V201.943C125.991 200.258 125.65 199.307 124.785 199.307C123.585 199.307 123.086 200.332 123.086 201.943V206.751H120.545V196.827ZM116.188 206.622H118.73V196.697H116.188V206.621V206.622ZM119.093 193.46C119.098 193.719 119.059 193.976 118.979 194.216C118.899 194.457 118.78 194.676 118.628 194.861C118.475 195.046 118.294 195.193 118.093 195.293C117.892 195.394 117.677 195.445 117.459 195.445C117.242 195.445 117.026 195.394 116.826 195.293C116.625 195.193 116.443 195.046 116.291 194.861C116.139 194.676 116.019 194.457 115.939 194.216C115.859 193.976 115.821 193.719 115.826 193.46C115.835 192.952 116.011 192.469 116.317 192.114C116.622 191.759 117.032 191.56 117.459 191.56C117.887 191.56 118.297 191.759 118.602 192.114C118.907 192.469 119.084 192.952 119.093 193.46Z" fill="url(#paint21_linear_0_1)"/>
<path d="M195.076 374.8L197.125 378.121L207.495 374.8M184.301 400.66L189.911 394.322L186.536 390.135M194.226 374.8L191.228 377.921L196.271 378.138M182.572 374.801L183.646 377.351L189.583 377.777M185.748 388.024L190.133 378.574L177.401 377.776M186.258 388.621L190.4 393.762L194.968 388.589L196.385 378.951L190.819 378.621L186.258 388.621Z" fill="url(#paint22_linear_0_1)"/>
<defs>
<filter id="filter0_d_0_1" x="528.001" y="138.366" width="164.611" height="151.134" filterUnits="userSpaceOnUse" color-interpolation-filters="sRGB">
<feFlood flood-opacity="0" result="BackgroundImageFix"/>
<feColorMatrix in="SourceAlpha" type="matrix" values="0 0 0 0 0 0 0 0 0 0 0 0 0 0 0 0 0 0 127 0" result="hardAlpha"/>
<feOffset dy="1"/>
<feGaussianBlur stdDeviation="7"/>
<feComposite in2="hardAlpha" operator="out"/>
<feColorMatrix type="matrix" values="0 0 0 0 1 0 0 0 0 1 0 0 0 0 1 0 0 0 0.55 0"/>
<feBlend mode="normal" in2="BackgroundImageFix" result="effect1_dropShadow_0_1"/>
<feBlend mode="normal" in="SourceGraphic" in2="effect1_dropShadow_0_1" result="shape"/>
</filter>
<radialGradient id="paint0_radial_0_1" cx="0" cy="0" r="1" gradientUnits="userSpaceOnUse" gradientTransform="translate(626.446 282.732) rotate(90) scale(228.68 375.59)">
<stop stop-color="#763CAC"/>
<stop offset="1" stop-color="#320F85" stop-opacity="0"/>
</radialGradient>
<linearGradient id="paint1_linear_0_1" x1="609.814" y1="87.3144" x2="609.814" y2="336.784" gradientUnits="userSpaceOnUse">
<stop stop-color="#301080" stop-opacity="0.6"/>
<stop offset="1" stop-color="#7840AD" stop-opacity="0.36"/>
</linearGradient>
<linearGradient id="paint2_linear_0_1" x1="610.507" y1="99.7878" x2="610.507" y2="472.606" gradientUnits="userSpaceOnUse">
<stop stop-opacity="0"/>
<stop offset="0.479167" stop-color="#763CAC"/>
</linearGradient>
<linearGradient id="paint3_linear_0_1" x1="616.744" y1="99.7878" x2="616.744" y2="472.606" gradientUnits="userSpaceOnUse">
<stop stop-opacity="0"/>
<stop offset="0.479167" stop-color="#763CAC"/>
</linearGradient>
<linearGradient id="paint4_linear_0_1" x1="631.296" y1="99.7878" x2="631.296" y2="472.606" gradientUnits="userSpaceOnUse">
<stop stop-opacity="0"/>
<stop offset="0.479167" stop-color="#763CAC"/>
</linearGradient>
<linearGradient id="paint5_linear_0_1" x1="616.744" y1="0" x2="616.744" y2="381.134" gradientUnits="userSpaceOnUse">
<stop offset="0.197917" stop-opacity="0"/>
<stop offset="1" stop-color="#763CAC"/>
</linearGradient>
<linearGradient id="paint6_linear_0_1" x1="616.051" y1="126.121" x2="616.051" y2="353.415" gradientUnits="userSpaceOnUse">
<stop offset="0.197917" stop-opacity="0"/>
<stop offset="1" stop-color="#763CAC"/>
</linearGradient>
<linearGradient id="paint7_linear_0_1" x1="1168.41" y1="208.324" x2="1168.41" y2="237.245" gradientUnits="userSpaceOnUse">
<stop stop-color="#693B93" stop-opacity="0.53"/>
<stop offset="1" stop-color="#693B93"/>
</linearGradient>
<linearGradient id="paint8_linear_0_1" x1="1168.41" y1="219.762" x2="1168.41" y2="225.813" gradientUnits="userSpaceOnUse">
<stop stop-color="#693B93" stop-opacity="0.53"/>
<stop offset="1" stop-color="#693B93"/>
</linearGradient>
<linearGradient id="paint9_linear_0_1" x1="1077.57" y1="166.301" x2="1077.57" y2="187.312" gradientUnits="userSpaceOnUse">
<stop stop-color="#693B93" stop-opacity="0.53"/>
<stop offset="1" stop-color="#693B93"/>
</linearGradient>
<linearGradient id="paint10_linear_0_1" x1="1229.33" y1="281.057" x2="1229.33" y2="311.766" gradientUnits="userSpaceOnUse">
<stop stop-color="#693B93" stop-opacity="0.53"/>
<stop offset="1" stop-color="#693B93"/>
</linearGradient>
<linearGradient id="paint11_linear_0_1" x1="1069.25" y1="402.275" x2="1069.25" y2="428.943" gradientUnits="userSpaceOnUse">
<stop stop-color="#693B93" stop-opacity="0.53"/>
<stop offset="1" stop-color="#693B93"/>
</linearGradient>
<linearGradient id="paint12_linear_0_1" x1="1154.21" y1="308.532" x2="1154.21" y2="329.948" gradientUnits="userSpaceOnUse">
<stop stop-color="#693B93" stop-opacity="0.53"/>
<stop offset="1" stop-color="#693B93"/>
</linearGradient>
<linearGradient id="paint13_linear_0_1" x1="1004.57" y1="181.593" x2="1004.57" y2="192.19" gradientUnits="userSpaceOnUse">
<stop stop-color="#693B93" stop-opacity="0.53"/>
<stop offset="1" stop-color="#693B93"/>
</linearGradient>
<linearGradient id="paint14_linear_0_1" x1="1004.58" y1="176.277" x2="1004.58" y2="186.859" gradientUnits="userSpaceOnUse">
<stop stop-color="#693B93" stop-opacity="0.53"/>
<stop offset="1" stop-color="#693B93"/>
</linearGradient>
<linearGradient id="paint15_linear_0_1" x1="988.84" y1="176.265" x2="988.84" y2="186.871" gradientUnits="userSpaceOnUse">
<stop stop-color="#693B93" stop-opacity="0.53"/>
<stop offset="1" stop-color="#693B93"/>
</linearGradient>
<linearGradient id="paint16_linear_0_1" x1="988.84" y1="181.603" x2="988.84" y2="192.18" gradientUnits="userSpaceOnUse">
<stop stop-color="#693B93" stop-opacity="0.53"/>
<stop offset="1" stop-color="#693B93"/>
</linearGradient>
<linearGradient id="paint17_linear_0_1" x1="176.015" y1="266.51" x2="176.015" y2="290.754" gradientUnits="userSpaceOnUse">
<stop stop-color="#693B93" stop-opacity="0.53"/>
<stop offset="1" stop-color="#693B93"/>
</linearGradient>
<linearGradient id="paint18_linear_0_1" x1="47.7089" y1="361.697" x2="47.7089" y2="365.652" gradientUnits="userSpaceOnUse">
<stop stop-color="#693B93" stop-opacity="0.53"/>
<stop offset="1" stop-color="#693B93"/>
</linearGradient>
<linearGradient id="paint19_linear_0_1" x1="47.815" y1="367.382" x2="47.815" y2="389.876" gradientUnits="userSpaceOnUse">
<stop stop-color="#693B93" stop-opacity="0.53"/>
<stop offset="1" stop-color="#693B93"/>
</linearGradient>
<linearGradient id="paint20_linear_0_1" x1="267.487" y1="270.796" x2="267.487" y2="291.219" gradientUnits="userSpaceOnUse">
<stop stop-color="#693B93" stop-opacity="0.53"/>
<stop offset="1" stop-color="#693B93"/>
</linearGradient>
<linearGradient id="paint21_linear_0_1" x1="122.361" y1="188.929" x2="122.361" y2="209.643" gradientUnits="userSpaceOnUse">
<stop stop-color="#693B93" stop-opacity="0.53"/>
<stop offset="1" stop-color="#693B93"/>
</linearGradient>
<linearGradient id="paint22_linear_0_1" x1="192.448" y1="374.8" x2="192.448" y2="400.66" gradientUnits="userSpaceOnUse">
<stop stop-color="#693B93" stop-opacity="0.53"/>
<stop offset="1" stop-color="#693B93"/>
</linearGradient>
</defs>
</svg>
