<svg width="1440" height="688" viewBox="0 0 1440 688" fill="none" xmlns="http://www.w3.org/2000/svg">
<g filter="url(#filter0_f_14_21)">
<path d="M1320.74 478.236C1365.87 447.623 1384.32 414.102 1374.38 380.79C1364.44 347.479 1326.43 315.457 1263.89 287.703C1201.34 259.948 1116.29 237.36 1016.64 222.04C916.985 206.719 805.966 199.163 693.899 200.074C581.832 200.984 472.355 210.331 375.644 227.247C278.934 244.162 198.128 268.097 140.739 296.826C83.3494 325.555 51.2388 358.146 47.3917 391.57C43.5446 424.993 68.0858 458.164 118.734 488H711.5L1320.74 478.236Z" fill="url(#paint0_radial_14_21)"/>
<path d="M1320.74 478.236C1365.87 447.623 1384.32 414.102 1374.38 380.79C1364.44 347.479 1326.43 315.457 1263.89 287.703C1201.34 259.948 1116.29 237.36 1016.64 222.04C916.985 206.719 805.966 199.163 693.899 200.074C581.832 200.984 472.355 210.331 375.644 227.247C278.934 244.162 198.128 268.097 140.739 296.826C83.3494 325.555 51.2388 358.146 47.3917 391.57C43.5446 424.993 68.0858 458.164 118.734 488H711.5L1320.74 478.236Z" fill="url(#paint1_linear_14_21)" fill-opacity="0.4"/>
</g>
<defs>
<filter id="filter0_f_14_21" x="-153" y="0" width="1730" height="688" filterUnits="userSpaceOnUse" color-interpolation-filters="sRGB">
<feFlood flood-opacity="0" result="BackgroundImageFix"/>
<feBlend mode="normal" in="SourceGraphic" in2="BackgroundImageFix" result="shape"/>
<feGaussianBlur stdDeviation="100" result="effect1_foregroundBlur_14_21"/>
</filter>
<radialGradient id="paint0_radial_14_21" cx="0" cy="0" r="1" gradientUnits="userSpaceOnUse" gradientTransform="translate(616 322.625) rotate(70.6997) scale(290.452 941.811)">
<stop stop-color="#621ABE"/>
<stop offset="1" stop-color="#24214B" stop-opacity="0"/>
</radialGradient>
<linearGradient id="paint1_linear_14_21" x1="899.5" y1="398.795" x2="410.252" y2="378.496" gradientUnits="userSpaceOnUse">
<stop stop-color="#FF9C54"/>
<stop offset="0.459917" stop-color="white" stop-opacity="0.540083"/>
<stop offset="1" stop-opacity="0"/>
</linearGradient>
</defs>
</svg>
