<svg width="40" height="40" viewBox="0 0 40 40" fill="none" xmlns="http://www.w3.org/2000/svg">
<path fill-rule="evenodd" clip-rule="evenodd" d="M13.6001 0H26.3999C30.3746 0 33.6 3.22542 33.6 7.20005C33.6 9.98538 32.0161 12.4027 29.7003 13.5999C32.0161 14.7972 33.6 17.2146 33.6 20C33.6 23.9746 30.3746 27.2 26.3999 27.2C24.139 27.2 22.1205 26.1564 20.8002 24.5248V32.7999C20.8002 36.7746 17.5748 40 13.6001 40C9.62547 40 6.40002 36.7746 6.40002 32.7999C6.40002 30.0146 7.98401 27.5972 10.2998 26.3999C7.984 25.2027 6.40002 22.7853 6.40002 20C6.40002 17.2146 7.98399 14.7972 10.2997 13.5999C7.984 12.4027 6.40002 9.98538 6.40002 7.20005C6.40002 3.22542 9.62547 0 13.6001 0ZM8.00002 7.20005C8.00002 4.10908 10.5091 1.6 13.6001 1.6H19.1998V12.7999H13.6001L13.5828 12.7999C10.4997 12.7905 8.00002 10.2852 8.00002 7.20005ZM19.2002 19.9238C19.2 19.9492 19.1998 19.9745 19.1998 20C19.1998 20.0254 19.2 20.0507 19.2002 20.0761V25.5998H13.6001C10.5091 25.6 8.00002 23.0909 8.00002 20C8.00002 16.9147 10.4998 14.4092 13.5829 14.3999L13.6001 14.3999H19.1998L19.2002 19.9238ZM20.8002 20.067V19.9329C20.8361 16.8804 23.3189 14.4122 26.377 14.3999H26.3999C26.4057 14.3999 26.4114 14.3999 26.4171 14.3999C29.5002 14.4092 32 16.9147 32 20C32 23.0909 29.4909 25.6 26.3999 25.6C23.3313 25.6 20.8362 23.1271 20.8002 20.067ZM21.8755 14.3999C21.4804 14.7196 21.1199 15.0801 20.8002 15.4751V14.3999H21.8755ZM26.4173 12.7999C26.4115 12.7999 26.4057 12.7999 26.3999 12.7999C26.3912 12.7999 26.3824 12.7999 26.3737 12.7999H20.8002V1.6H26.3999C29.4909 1.6 32 4.10908 32 7.20005C32 10.2852 29.5003 12.7905 26.4173 12.7999ZM13.6001 27.1999C10.5091 27.1999 8.00002 29.709 8.00002 32.7999C8.00002 35.8909 10.5091 38.4 13.6001 38.4C16.6911 38.4 19.2002 35.8909 19.2002 32.7999V27.1999H13.6001Z" fill="white" fill-opacity="0.5"/>
</svg>
