<svg width="21" height="20" viewBox="0 0 21 20" fill="none" xmlns="http://www.w3.org/2000/svg">
<path d="M10.3139 1.7394C12.9076 1.7394 13.2148 1.74906 14.2394 1.79548C14.8555 1.80297 15.4657 1.91538 16.0435 2.12783C16.4625 2.28841 16.8431 2.5344 17.1606 2.84997C17.4782 3.16554 17.7257 3.54369 17.8873 3.96008C18.1011 4.53427 18.2143 5.14063 18.2218 5.75281C18.2681 6.77098 18.2782 7.07621 18.2782 9.65359C18.2782 12.231 18.2685 12.5362 18.2218 13.5544C18.2143 14.1666 18.1011 14.7729 17.8873 15.3471C17.7257 15.7635 17.4782 16.1416 17.1606 16.4572C16.8431 16.7728 16.4625 17.0188 16.0435 17.1794C15.4657 17.3918 14.8555 17.5042 14.2394 17.5117C13.2152 17.5577 12.9081 17.5678 10.3139 17.5678C7.71972 17.5678 7.41257 17.5581 6.3884 17.5117C5.77234 17.5042 5.16214 17.3918 4.58432 17.1794C4.16529 17.0188 3.78474 16.7728 3.46718 16.4572C3.14961 16.1416 2.90205 15.7635 2.74045 15.3471C2.52667 14.7729 2.41354 14.1666 2.406 13.5544C2.35975 12.5362 2.34957 12.231 2.34957 9.65359C2.34957 7.07621 2.35928 6.77098 2.406 5.75281C2.41354 5.14063 2.52667 4.53427 2.74045 3.96008C2.90205 3.54369 3.14961 3.16554 3.46718 2.84997C3.78474 2.5344 4.16529 2.28841 4.58432 2.12783C5.16214 1.91538 5.77234 1.80297 6.3884 1.79548C7.41303 1.74952 7.72018 1.7394 10.3139 1.7394ZM10.3139 0C7.67716 0 7.34503 0.0110321 6.30884 0.0579188C5.50257 0.0738547 4.70487 0.225553 3.94965 0.50656C3.3018 0.749114 2.71501 1.12922 2.23022 1.62035C1.73553 2.10226 1.3527 2.68568 1.10845 3.32987C0.825666 4.08033 0.673007 4.87302 0.65697 5.6742C0.610711 6.70295 0.599609 7.033 0.599609 9.65313C0.599609 12.2733 0.610711 12.6033 0.657895 13.633C0.673932 14.4342 0.826591 15.2269 1.10938 15.9773C1.35335 16.6214 1.73587 17.2048 2.23022 17.6868C2.71528 18.1781 3.30239 18.5582 3.95058 18.8006C4.70579 19.0816 5.5035 19.2333 6.30976 19.2493C7.34595 19.2952 7.6767 19.3072 10.3148 19.3072C12.9529 19.3072 13.2837 19.2962 14.3199 19.2493C15.1262 19.2333 15.9239 19.0816 16.6791 18.8006C17.3242 18.5521 17.91 18.1726 18.3991 17.6863C18.8882 17.2 19.2697 16.6176 19.5193 15.9764C19.8021 15.2259 19.9548 14.4333 19.9708 13.6321C20.0171 12.6033 20.0282 12.2733 20.0282 9.65313C20.0282 7.033 20.0171 6.70295 19.9699 5.67329C19.9539 4.8721 19.8012 4.07941 19.5184 3.32895C19.2745 2.68485 18.8919 2.10143 18.3976 1.61943C17.9125 1.12819 17.3254 0.748076 16.6772 0.50564C15.922 0.224633 15.1243 0.0729354 14.318 0.0569995C13.2828 0.0110322 12.9506 0 10.3139 0Z" fill="#27272A"/>
<path d="M10.3127 4.69531C9.3261 4.69531 8.36162 4.98604 7.54127 5.53074C6.72091 6.07543 6.08152 6.84963 5.70395 7.75542C5.32638 8.66122 5.22759 9.65793 5.42007 10.6195C5.61256 11.5811 6.08767 12.4644 6.78532 13.1576C7.48298 13.8509 8.37185 14.323 9.33953 14.5143C10.3072 14.7056 11.3102 14.6074 12.2218 14.2322C13.1333 13.857 13.9124 13.2216 14.4605 12.4065C15.0087 11.5913 15.3013 10.6329 15.3013 9.65243C15.3013 8.33772 14.7757 7.07686 13.8402 6.14722C12.9046 5.21758 11.6358 4.69531 10.3127 4.69531ZM10.3127 12.8701C9.67231 12.8701 9.04625 12.6814 8.51375 12.3279C7.98125 11.9743 7.56621 11.4718 7.32113 10.8838C7.07604 10.2958 7.01192 9.64886 7.13686 9.02468C7.26181 8.40051 7.5702 7.82717 8.02306 7.37716C8.47592 6.92716 9.05289 6.6207 9.68102 6.49654C10.3091 6.37239 10.9602 6.43611 11.5519 6.67965C12.1436 6.92319 12.6493 7.33561 13.0051 7.86476C13.3609 8.39391 13.5508 9.01602 13.5508 9.65243C13.5508 10.5058 13.2097 11.3243 12.6024 11.9277C11.9952 12.5311 11.1715 12.8701 10.3127 12.8701Z" fill="#27272A"/>
<path d="M15.4997 5.65855C16.1435 5.65855 16.6654 5.13993 16.6654 4.50017C16.6654 3.86042 16.1435 3.3418 15.4997 3.3418C14.8559 3.3418 14.334 3.86042 14.334 4.50017C14.334 5.13993 14.8559 5.65855 15.4997 5.65855Z" fill="#27272A"/>
</svg>
